<svg width="135" height="139" viewBox="0 0 135 139" fill="none" xmlns="http://www.w3.org/2000/svg">
<rect width="135" height="139" fill="#1E1E1E"/>
<rect x="-18.8879" y="86.4014" width="135" height="113" rx="48" transform="rotate(-51 -18.8879 86.4014)" fill="#259883"/>
<path d="M89.9091 61.4545C89.9091 71.697 87.9394 80.3788 84 87.5C80.0606 94.6212 74.7273 100.03 68 103.727C61.303 107.424 53.7879 109.273 45.4545 109.273C37.0909 109.273 29.5606 107.409 22.8636 103.682C16.1667 99.9545 10.8485 94.5455 6.90909 87.4545C3 80.3333 1.04545 71.6667 1.04545 61.4545C1.04545 51.2121 3 42.5303 6.90909 35.4091C10.8485 28.2879 16.1667 22.8788 22.8636 19.1818C29.5606 15.4848 37.0909 13.6364 45.4545 13.6364C53.7879 13.6364 61.303 15.4848 68 19.1818C74.7273 22.8788 80.0606 28.2879 84 35.4091C87.9394 42.5303 89.9091 51.2121 89.9091 61.4545ZM66.9091 61.4545C66.9091 55.3939 66.0455 50.2727 64.3182 46.0909C62.6212 41.9091 60.1667 38.7424 56.9545 36.5909C53.7727 34.4394 49.9394 33.3636 45.4545 33.3636C41 33.3636 37.1667 34.4394 33.9545 36.5909C30.7424 38.7424 28.2727 41.9091 26.5455 46.0909C24.8485 50.2727 24 55.3939 24 61.4545C24 67.5151 24.8485 72.6364 26.5455 76.8182C28.2727 81 30.7424 84.1667 33.9545 86.3182C37.1667 88.4697 41 89.5455 45.4545 89.5455C49.9394 89.5455 53.7727 88.4697 56.9545 86.3182C60.1667 84.1667 62.6212 81 64.3182 76.8182C66.0455 72.6364 66.9091 67.5151 66.9091 61.4545Z" fill="#E0E4E4"/>
<path d="M42 56.1818V37.9091H120.682V56.1818H92.4545V131H70.2727V56.1818H42Z" fill="#0D5458"/>
</svg>
